# xmcd
#
# Track frame offsets:
# 150
# 17925
# 35272
# 52620
# 70635
# 90600
# 109220
# 129260
# 147742
# 160812
# 203902
#
# Disc length: 2723 seconds
#
#
# Revision: 0
# Processed by: cddbd v1.5.2PL0 Copyright (c) Steve Scherf et al.
# Submitted via: FreeRIP 2.944 
#
DISCID=8f0aa10b
DTITLE=Greg Wyard - Something I Made Up
DYEAR=2001
DGENRE=Folk/Rock
TTITLE0=Leave It Like That
TTITLE1=A Likely Story
TTITLE2=8 x 10
TTITLE3=I Get That All The Time
TTITLE4=What Are You Trying To Prove
TTITLE5=Just Be You
TTITLE6=She'll Be There
TTITLE7=Something I Made Up
TTITLE8=Ready To Come Back Home
TTITLE9=Few And Far Between
TTITLE10=Unknown
EXTD=
EXTT0=
EXTT1=
EXTT2=
EXTT3=
EXTT4=
EXTT5=
EXTT6=
EXTT7=
EXTT8=
EXTT9=
EXTT10=4 seconds of nothing
PLAYORDER=
